<?xml version="1.0" standalone="no"?><!DOCTYPE svg PUBLIC "-//W3C//DTD SVG 1.1//EN" "http://www.w3.org/Graphics/SVG/1.1/DTD/svg11.dtd"><svg class="icon" width="128px" height="128.00px" viewBox="0 0 1024 1024" version="1.1" xmlns="http://www.w3.org/2000/svg"><path fill="#666666" d="M512 917.3c-97.7 0-177.1-79.5-177.1-177.1 0-3.9 0.3-7.7 0.5-11.6l0.1-1.2c0.5-7.7 7-13.7 14.7-13.7h323.7c7.7 0 14.1 6 14.7 13.7l0.1 1.2c0.3 3.8 0.5 7.6 0.5 11.6-0.1 97.6-79.5 177.1-177.2 177.1zM364.3 743.1c1.6 80.1 67.2 144.8 147.7 144.8s146.1-64.7 147.7-144.8H364.3z"  /><path fill="#666666" d="M789.5 743.1H673.8v-29.4h115.6c16 0 30.5-8.1 38.9-21.8 8.4-13.6 9.1-30.3 1.8-44.5L685.5 371c-1.7-3.3-2.1-7.1-1.2-10.7 4.2-15.6 6.3-31.3 6.3-46.5 0-98.5-80.1-178.6-178.6-178.6s-178.6 80.1-178.6 178.6c0 9.8 0.9 19.7 2.6 29.6 0.9 5.3 2.1 10.8 3.6 16.2 0.9 3.5 0.5 7.3-1.2 10.6L193.7 647.6c-7.1 14.1-6.4 30.7 2 44.3 8.4 13.6 22.9 21.7 38.9 21.7h115.6V743H234.5c-26.3 0-50.2-13.4-63.9-35.7-13.8-22.4-14.9-49.7-3.1-73.2l142.2-272.6c-1-4.4-2-8.8-2.7-13.1-2-11.5-3-23.2-3-34.7 0-114.7 93.3-208.1 208-208.1s208 93.3 208 208.1c0 16-2 32.3-5.9 48.5l142.2 271.5c12 23.6 10.8 51-2.9 73.4-13.7 22.6-37.6 36-63.9 36z"  /></svg>