<?xml version="1.0" standalone="no"?><!DOCTYPE svg PUBLIC "-//W3C//DTD SVG 1.1//EN" "http://www.w3.org/Graphics/SVG/1.1/DTD/svg11.dtd"><svg class="icon" width="128px" height="128.00px" viewBox="0 0 1024 1024" version="1.1" xmlns="http://www.w3.org/2000/svg"><path fill="#666666" d="M386.4 452.6V396c0-10.4-7-18.9-15.7-18.9S355 385.5 355 396v56.6c0 10.4 7 18.9 15.7 18.9 8.6-0.1 15.7-8.5 15.7-18.9m282.8 0V396c0-10.4-7-18.9-15.7-18.9s-15.7 8.4-15.7 18.9v56.6c0 10.4 7 18.9 15.7 18.9 8.7-0.1 15.7-8.5 15.7-18.9M511.4 660c57.5 0 107.4-22.4 134.1-55.4 1.2-1.1 2.3-2.4 3.2-3.8 0.2-0.3 0.6-0.6 0.8-0.9l-0.2-0.1c2.2-3.5 3.4-7.7 3.5-12.1 0-12.1-8.4-21.9-18.9-21.9-6.1 0.1-11.7 3.6-15.1 9.4-17.3 24-58.8 41-107.5 41-48.6 0-90.2-17-107.5-41-3.4-5.8-9-9.3-15.1-9.4-5.1 0.1-9.9 2.4-13.5 6.5-3.5 4.1-5.5 9.7-5.4 15.4 0 4.6 1.5 8.6 3.5 12.1l-0.2 0.1c0.2 0.3 0.6 0.6 0.8 0.9 0.9 1.4 2 2.7 3.2 3.8 26.9 33 76.8 55.4 134.3 55.4"  /><path fill="#666666" d="M920.7 537.3c0 47.3-25.5 88.6-63.5 111-41.6 97-123.5 174.2-226.5 207.9-4.2 23.3-24.5 40.9-49 40.9-27.5 0-49.8-22.3-49.8-49.8 0-27.5 22.3-49.8 49.8-49.8 19.7 0 36.8 11.4 44.8 28 135.8-47 230.3-176.6 230.3-323.4 0-188.7-153.5-342.1-342.1-342.1-188.6 0-342.1 153.5-342.1 342.1 0 41.2 23.2 102.6 37.1 139.4l0.5 1.3c3 7.9-1 16.7-8.9 19.6-5.3 2-11.1 0.8-15.2-2.6-44.4-14.2-79.6-51.7-82.7-122.4-1.7-38.5 16.6-73 43.7-96.6 29.3-176.4 183-311.3 367.5-311.3 186.6 0 341.6 137.9 368.5 317.2 23.2 23.2 37.6 55.2 37.6 90.6z"  /></svg>