<?xml version="1.0" standalone="no"?><!DOCTYPE svg PUBLIC "-//W3C//DTD SVG 1.1//EN" "http://www.w3.org/Graphics/SVG/1.1/DTD/svg11.dtd"><svg class="icon" width="128px" height="128.00px" viewBox="0 0 1024 1024" version="1.1" xmlns="http://www.w3.org/2000/svg"><path fill="#666666" d="M508 896.8c-211.9 0-384.3-172.4-384.3-384.3S296.1 128.2 508 128.2s384.3 172.4 384.3 384.3S720 896.8 508 896.8z m0-739.2c-195.7 0-354.9 159.2-354.9 354.9S312.3 867.4 508 867.4s354.9-159.2 354.9-354.9S703.7 157.6 508 157.6z"  /><path fill="#666666" d="M512.4 331.3m-35.1 0a35.1 35.1 0 1 0 70.2 0 35.1 35.1 0 1 0-70.2 0Z"  /><path fill="#666666" d="M512.4 740.2c-13.6 0-24.6-11-24.6-24.6V455.7c0-13.6 11-24.6 24.6-24.6 13.6 0 24.6 11 24.6 24.6v259.9c0 13.6-11 24.6-24.6 24.6z"  /></svg>