<?xml version="1.0" standalone="no"?><!DOCTYPE svg PUBLIC "-//W3C//DTD SVG 1.1//EN" "http://www.w3.org/Graphics/SVG/1.1/DTD/svg11.dtd"><svg class="icon" width="128px" height="128.00px" viewBox="0 0 1024 1024" version="1.1" xmlns="http://www.w3.org/2000/svg"><path fill="#666666" d="M851.9 530.8H174.4c-30.1 0-54.6-24.5-54.6-54.6v-83c0-30.1 24.5-54.6 54.6-54.6h677.5c30.1 0 54.6 24.5 54.6 54.6v83c0.1 30.1-24.4 54.6-54.6 54.6zM174.4 368c-13.9 0-25.2 11.3-25.2 25.2v83c0 13.9 11.3 25.2 25.2 25.2h677.5c13.9 0 25.2-11.3 25.2-25.2v-83c0-13.9-11.3-25.2-25.2-25.2H174.4z"  /><path fill="#666666" d="M787.4 875.1H238.9c-29.6 0-53.6-24.1-53.6-53.6V514.1h29.4v307.4c0 13.4 10.9 24.2 24.2 24.2h548.5c13.3 0 24.2-10.9 24.2-24.2V514.1H841v307.4c0.1 29.6-24 53.6-53.6 53.6zM592.1 368H434.2c-18.2 0-33.1-14.8-33.1-33.1V177c0-18.2 14.8-33.1 33.1-33.1h157.9c18.2 0 33.1 14.8 33.1 33.1v157.9c0 18.3-14.8 33.1-33.1 33.1zM434.2 173.4c-2 0-3.7 1.7-3.7 3.7V335c0 2 1.7 3.7 3.7 3.7h157.9c2 0 3.7-1.7 3.7-3.7V177c0-2-1.7-3.7-3.7-3.7H434.2z"  /><path fill="#666666" d="M381.2 874.6c-8.1 0-14.7-6.6-14.7-14.7V707.8c0-8.1 6.6-14.7 14.7-14.7s14.7 6.6 14.7 14.7v152.1c0 8.1-6.6 14.7-14.7 14.7zM516.5 874.6c-8.1 0-14.7-6.6-14.7-14.7V707.8c0-8.1 6.6-14.7 14.7-14.7s14.7 6.6 14.7 14.7v152.1c0 8.1-6.6 14.7-14.7 14.7zM645.2 874.6c-8.1 0-14.7-6.6-14.7-14.7V707.8c0-8.1 6.6-14.7 14.7-14.7s14.7 6.6 14.7 14.7v152.1c0 8.1-6.6 14.7-14.7 14.7z"  /></svg>