<?xml version="1.0" standalone="no"?><!DOCTYPE svg PUBLIC "-//W3C//DTD SVG 1.1//EN" "http://www.w3.org/Graphics/SVG/1.1/DTD/svg11.dtd"><svg t="1554361622978" class="icon" style="" viewBox="0 0 1094 1024" version="1.1" xmlns="http://www.w3.org/2000/svg" p-id="8782" xmlns:xlink="http://www.w3.org/1999/xlink" width="136.75" height="128"><defs><style type="text/css"></style></defs><path d="M914.654947 540.278893c-11.311557 0-20.55541 9.122224-20.55541 20.433781l-0.12163 239.610405c-6.081482 65.193491-59.233638 74.802233-68.355862 76.018529H259.436038c-58.50386-7.05452-62.15275-63.733935-62.396009-69.693788V274.396484c6.324742-66.774676 53.030526-74.315714 60.328305-75.045492h188.404323c11.311557 0 20.433781-9.122224 20.433781-20.433781s-9.122224-20.433781-20.433781-20.433781H255.05737c-30.89393 2.067704-91.343865 28.461337-98.884903 113.237202l-0.12163 0.851407v534.68393c0.851408 34.42119 22.744744 101.682385 99.97957 110.07483l571.780972 0.12163 0.973037-0.12163c33.569783-3.162371 99.006533-31.13719 106.061053-114.210238l0.243259-242.286258c0-11.433187-9.122224-20.55541-20.433781-20.55541z m0 0" fill="#666666" p-id="8783"></path><path d="M324.872788 758.48248c-2.189334 11.798076 5.594964 22.988003 17.27141 25.177337 1.337926 0.243259 2.675852 0.364889 4.013778 0.364889 10.21689 0 19.339114-7.297779 21.285188-17.636299 0.851408-4.257038 83.437938-424.24421 506.100962-514.736667L754.590331 379.484499c-8.149186 8.757335-7.662668 22.379855 1.094667 30.529042 4.013778 3.770519 9.243853 5.838223 14.717188 5.838223 5.838223 0 11.554816-2.310963 15.811854-6.93289l133.792612-143.887873 1.824444-2.310963c14.960447-21.163559 13.62252-38.07008 9.973631-48.530229-8.149186-22.866374-32.718375-30.285782-35.150968-31.01556L695.721582 122.967573c-11.433187-3.40563-23.474522 3.040741-26.880152 14.473928-3.40563 11.433187 3.040741 23.474522 14.473928 26.880152l163.470246 49.016748C411.594726 317.453379 325.602566 753.982183 324.872788 758.48248z m0 0" fill="#666666" p-id="8784"></path></svg>